HIERARCHY
ROOT Hips
{
  OFFSET 50.2764 100.536 12.9216
  CHANNELS 6 Xposition Yposition Zposition Zrotation Xrotation Yrotation
  JOINT spine
  {
    OFFSET 0 8.81704 0.507024
    CHANNELS 3 Zrotation Xrotation Yrotation
    JOINT spine1
    {
      OFFSET 0 10.7766 0
      CHANNELS 3 Zrotation Xrotation Yrotation
      JOINT spine2
      {
        OFFSET 0 10.3259 0
        CHANNELS 3 Zrotation Xrotation Yrotation
        JOINT Neck
        {
          OFFSET 0 26.511 1.26395
          CHANNELS 3 Zrotation Xrotation Yrotation
          JOINT Head
          {
            OFFSET 0 8.00966 0
            CHANNELS 3 Zrotation Xrotation Yrotation
            End Site
            {
              OFFSET 0 19.3879 -6.39386
            }
          }
        }
        JOINT RightShoulder
        {
          OFFSET -4.34795 11.1512 -0.605422
          CHANNELS 3 Zrotation Xrotation Yrotation
          JOINT RightArm
          {
            OFFSET 0 14.6258 0
            CHANNELS 3 Zrotation Xrotation Yrotation
            JOINT RightArmRoll
            {
              OFFSET 0 7.3834 0
              CHANNELS 3 Zrotation Xrotation Yrotation
              JOINT RightForeArm
              {
                OFFSET 0 21.5052 0
                CHANNELS 3 Zrotation Xrotation Yrotation
                JOINT RightForeArmRoll
                {
                  OFFSET 0 8.28532 0
                  CHANNELS 3 Zrotation Xrotation Yrotation
                  JOINT RightHand
                  {
                    OFFSET 0 16.6268 0
                    CHANNELS 3 Zrotation Xrotation Yrotation
                    End Site
                    {
                      OFFSET 0 0 0
                    }
                  }
                }
              }
            }
          }
        }
        JOINT LeftShoulder
        {
          OFFSET 4.34795 11.1512 -0.605422
          CHANNELS 3 Zrotation Xrotation Yrotation
          JOINT LeftArm
          {
            OFFSET 0 14.6258 0
            CHANNELS 3 Zrotation Xrotation Yrotation
            JOINT LeftArmRoll
            {
              OFFSET 0 7.38339 0
              CHANNELS 3 Zrotation Xrotation Yrotation
              JOINT LeftForeArm
              {
                OFFSET 0 21.5052 0
                CHANNELS 3 Zrotation Xrotation Yrotation
                JOINT LeftForeArmRoll
                {
                  OFFSET 0 8.28532 0
                  CHANNELS 3 Zrotation Xrotation Yrotation
                  JOINT LeftHand
                  {
                    OFFSET 0 16.6268 0
                    CHANNELS 3 Zrotation Xrotation Yrotation
                    End Site
                    {
                      OFFSET 0 0 0
                    }
                  }
                }
              }
            }
          }
        }
      }
    }
  }
  JOINT RightUpLeg
  {
    OFFSET -7.8151 -1.43309 -1.20217
    CHANNELS 3 Zrotation Xrotation Yrotation
    JOINT RightUpLegRoll
    {
      OFFSET 0 19.4959 0
      CHANNELS 3 Zrotation Xrotation Yrotation
      JOINT RightLeg
      {
        OFFSET 0 -24.1427 0
        CHANNELS 3 Zrotation Xrotation Yrotation
        JOINT RightLegRoll
        {
          OFFSET 0 24.2217 0
          CHANNELS 3 Zrotation Xrotation Yrotation
          JOINT RightFoot
          {
            OFFSET 0 20.1605 0
            CHANNELS 3 Zrotation Xrotation Yrotation
            JOINT RightToeBase
            {
              OFFSET 0 16.8532 0
              CHANNELS 3 Zrotation Xrotation Yrotation
              End Site
              {
                OFFSET 0.00714343 8.16186 -0.940781
              }
            }
          }
        }
      }
    }
  }
  JOINT LeftUpLeg
  {
    OFFSET 7.8151 -1.43309 -1.20217
    CHANNELS 3 Zrotation Xrotation Yrotation
    JOINT LeftUpLegRoll
    {
      OFFSET 0 19.496 0
      CHANNELS 3 Zrotation Xrotation Yrotation
      JOINT LeftLeg
      {
        OFFSET 0 24.1426 0
        CHANNELS 3 Zrotation Xrotation Yrotation
        JOINT LeftLegRoll
        {
          OFFSET 0 24.4456 0
          CHANNELS 3 Zrotation Xrotation Yrotation
          JOINT LeftFoot
          {
            OFFSET 0 19.9366 0
            CHANNELS 3 Zrotation Xrotation Yrotation
            JOINT LeftToeBase
            {
              OFFSET 0 16.8532 0
              CHANNELS 3 Zrotation Xrotation Yrotation
              End Site
              {
                OFFSET -0.0320138 8.16187 -0.94078
              }
            }
          }
        }
      }
    }
  }
}
MOTION
Frames: 11
Frame Time: 0.00208333
52.0727 100.603 12.3942 -2.05812 -1.196 1.39581 0.415791 -2.23332 -0.0674147 0.813251 -0.464563 -0.172518 0.815764 1.18041 -0.186162 -1.52296 27.0159 1.16391 -4.87795 -7.00326 -0.209931 70.3616 -3.1755 -2.94056 103.148 18.6166 12.4167 -7.15625e-015 6.36111e-015 -1.59028e-015 14.6386 0.120146 -0.426474 -1.00052e-005 -3.72445e-006 -3.0317 8.02893 -4.95146 0.697692 -61.5208 -4.05458 2.73844 -110.937 14.3998 -6.32363 -5.16881e-006 2.82335e-006 -3.33444e-006 -10.1503 1.91343 0.696609 -1.2342e-005 -1.77723e-006 3.00191 -8.02894 -4.95147 -0.697676 -179.25 0.713476 -1.5374 180 7.01563e-015 178.997 178.083 5.57054 179.736 -1.25957e-006 -6.71339e-007 0.0384567 -18.15 67.367 19.0321 8.13373 25.2328 -3.49773 -175.812 0.626462 1.21107 4.54188e-006 -4.6773e-006 -1.09679 -2.64887 -9.52602 0.128926 2.966e-007 -4.00428e-006 -0.186033 20.4173 70.0522 -21.405 -8.15647 25.6474 3.01425 
52.0624 100.606 12.4122 -2.06803 -1.20073 1.34453 0.416355 -2.23733 -0.0700967 0.815389 -0.472601 -0.177911 0.817946 1.17237 -0.191591 -1.52962 27.1205 1.17784 -4.8756 -7.04732 -0.201424 70.4057 -3.15236 -2.93298 103.096 18.6099 12.4241 -1.11319e-014 3.18055e-015 -3.18055e-015 14.6495 0.12014 -0.423558 -1.00052e-005 -3.72445e-006 -3.03135 8.02893 -4.95146 0.697692 -61.5394 -4.04272 2.73297 -110.917 14.3842 -6.32228 -5.16881e-006 2.82335e-006 -3.33444e-006 -10.1636 1.89291 0.69353 -1.2342e-005 -1.77723e-006 3.00191 -8.02894 -4.95147 -0.697676 -179.24 0.715498 -1.54002 180 7.01563e-015 178.997 178.08 5.57779 179.736 -1.25957e-006 -6.71339e-007 0.0384567 -18.1479 67.3644 19.0298 8.13373 25.2328 -3.49773 -175.802 0.624633 1.2018 4.54188e-006 -4.6773e-006 -1.09677 -2.65202 -9.55435 0.128318 2.966e-007 -4.00428e-006 -0.186183 20.4312 70.0666 -21.4198 -8.15725 25.6588 3.01663 
52.0622 100.611 12.4056 -2.07766 -1.20521 1.2936 0.416832 -2.24146 -0.0728342 0.817392 -0.480889 -0.183407 0.819993 1.16408 -0.197121 -1.53743 27.2269 1.19261 -4.87219 -7.09361 -0.19245 70.4511 -3.12748 -2.92467 103.044 18.6032 12.4329 -4.77083e-015 0 -3.18055e-015 14.6598 0.120135 -0.420821 -1.00052e-005 -3.72445e-006 -3.03099 8.02893 -4.95146 0.697692 -61.5592 -4.03125 2.72783 -110.895 14.3689 -6.32164 -5.16881e-006 2.82335e-006 -3.33444e-006 -10.1769 1.87053 0.69024 -1.2342e-005 -1.77723e-006 3.00191 -8.02894 -4.95147 -0.697676 -179.23 0.717758 -1.54243 180 7.01563e-015 178.997 178.077 5.58502 179.737 -1.25957e-006 -6.71339e-007 0.0384567 -18.1458 67.3617 19.0275 8.13373 25.2328 -3.49773 -175.793 0.622892 1.19278 4.54188e-006 -4.6773e-006 -1.09674 -2.65522 -9.58187 0.127694 2.966e-007 -4.00428e-006 -0.186289 20.4442 70.0802 -21.4338 -8.15807 25.6707 3.01916 
52.0543 100.608 12.4054 -2.08709 -1.20951 1.24291 0.41725 -2.24568 -0.0756107 0.819301 -0.489353 -0.188975 0.821946 1.15562 -0.202722 -1.54605 27.3345 1.20799 -4.86803 -7.14146 -0.18315 70.4975 -3.10137 -2.91586 102.99 18.5964 12.4427 7.15625e-015 -6.36111e-015 3.18055e-015 14.6698 0.120129 -0.418208 -1.00052e-005 -3.72445e-006 -3.03064 8.02893 -4.95146 0.697692 -61.5799 -4.02007 2.72292 -110.871 14.354 -6.32148 -5.16881e-006 2.82335e-006 -3.33444e-006 -10.1901 1.84683 0.686804 -1.2342e-005 -1.77723e-006 3.00191 -8.02894 -4.95147 -0.697676 -179.221 0.720184 -1.5447 180 7.01563e-015 178.997 178.074 5.59226 179.737 -1.25957e-006 -6.71339e-007 0.0384567 -18.1437 67.3591 19.0252 8.13373 25.2328 -3.49773 -175.784 0.621213 1.18394 4.54188e-006 -4.6773e-006 -1.0967 -2.65845 -9.60883 0.127059 2.966e-007 -4.00428e-006 -0.186366 20.4567 70.0931 -21.4472 -8.15891 25.6829 3.02181 
52.0463 100.615 12.4085 -2.09641 -1.21372 1.19238 0.417633 -2.24995 -0.0784094 0.821154 -0.497918 -0.194584 0.823845 1.14705 -0.208362 -1.55518 27.4429 1.22373 -4.86344 -7.19019 -0.173662 70.5445 -3.07457 -2.90675 102.936 18.5896 12.453 3.97569e-015 0 1.59028e-015 14.6795 0.120124 -0.415666 -1.00052e-005 -3.72445e-006 -3.03029 8.02893 -4.95146 0.697692 -61.601 -4.00904 2.71815 -110.847 14.3393 -6.32161 -5.16881e-006 2.82335e-006 -3.33444e-006 -10.2033 1.82238 0.683284 -1.2342e-005 -1.77723e-006 3.00191 -8.02894 -4.95147 -0.697676 -179.212 0.722706 -1.54689 180 7.01563e-015 178.997 178.071 5.59946 179.737 -1.25957e-006 -6.71339e-007 0.0384567 -18.1417 67.3565 19.0229 8.13373 25.2328 -3.49773 -175.775 0.61957 1.1752 4.54188e-006 -4.6773e-006 -1.09665 -2.6617 -9.63548 0.126417 2.966e-007 -4.00428e-006 -0.186425 20.4689 70.1058 -21.4603 -8.15977 25.6954 3.02452 
52.0399 100.613 12.4301 -2.10571 -1.21789 1.14187 0.418006 -2.25424 -0.0812137 0.822993 -0.506507 -0.200203 0.825728 1.13846 -0.214013 -1.56449 27.5514 1.23958 -4.85874 -7.23915 -0.164126 70.5915 -3.04759 -2.89758 102.881 18.5828 12.4634 2.8625e-014 -1.27222e-014 1.11319e-014 14.6892 0.120118 -0.413143 -1.00052e-005 -3.72445e-006 -3.02993 8.02893 -4.95146 0.697692 -61.6223 -3.99805 2.7134 -110.823 14.3247 -6.32181 -5.16881e-006 2.82335e-006 -3.33444e-006 -10.2165 1.79774 0.679743 -1.2342e-005 -1.77723e-006 3.00191 -8.02894 -4.95147 -0.697676 -179.203 0.725251 -1.54906 180 7.01563e-015 178.997 178.068 5.60666 179.738 -1.25957e-006 -6.71339e-007 0.0384567 -18.1396 67.3539 19.0206 8.13373 25.2328 -3.49773 -175.766 0.617936 1.16648 4.54188e-006 -4.6773e-006 -1.0966 -2.66496 -9.66204 0.125773 2.966e-007 -4.00428e-006 -0.18648 20.4811 70.1183 -21.4733 -8.16063 25.7079 3.02724 
52.0361 100.615 12.4312 -2.11508 -1.22212 1.0913 0.418397 -2.2585 -0.0840068 0.824857 -0.515046 -0.205802 0.827637 1.12993 -0.219643 -1.57365 27.6595 1.25531 -4.85422 -7.28766 -0.154681 70.6383 -3.02095 -2.88854 102.827 18.576 12.4736 1.27222e-014 -3.18055e-015 3.18055e-015 14.699 0.120113 -0.410583 -1.00052e-005 -3.72445e-006 -3.02958 8.02893 -4.95146 0.697692 -61.6434 -3.98699 2.7086 -110.799 14.3099 -6.32187 -5.16881e-006 2.82335e-006 -3.33444e-006 -10.2297 1.77348 0.676245 -1.2342e-005 -1.77723e-006 3.00191 -8.02894 -4.95147 -0.697676 -179.194 0.727749 -1.55128 180 7.01563e-015 178.997 178.065 5.61388 179.738 -1.25957e-006 -6.71339e-007 0.0384567 -18.1376 67.3513 19.0183 8.13373 25.2328 -3.49773 -175.757 0.616284 1.15771 4.54188e-006 -4.6773e-006 -1.09656 -2.6682 -9.68876 0.125133 2.966e-007 -4.00428e-006 -0.186543 20.4934 70.131 -21.4865 -8.16149 25.7203 3.02994 
52.0308 100.617 12.4427 -2.1246 -1.22647 1.04054 0.41883 -2.26269 -0.0867722 0.826785 -0.52346 -0.211349 0.82961 1.12151 -0.225223 -1.58232 27.7667 1.27066 -4.85021 -7.33506 -0.145466 70.6844 -2.99519 -2.87988 102.774 18.5692 12.4831 -7.95139e-016 -3.18055e-015 -0 14.709 0.120108 -0.407935 -1.00052e-005 -3.72445e-006 -3.02922 8.02893 -4.95146 0.697692 -61.6638 -3.97572 2.70362 -110.776 14.2949 -6.32158 -5.16881e-006 2.82335e-006 -3.33444e-006 -10.2429 1.75015 0.672851 -1.2342e-005 -1.77723e-006 3.00191 -8.02894 -4.95147 -0.697676 -179.184 0.730128 -1.55359 180 7.01563e-015 178.997 178.062 5.62111 179.739 -1.25957e-006 -6.71339e-007 0.0384567 -18.1355 67.3486 19.016 8.13373 25.2328 -3.49773 -175.748 0.614587 1.14882 4.54188e-006 -4.6773e-006 -1.09652 -2.67142 -9.71588 0.124501 2.966e-007 -4.00428e-006 -0.186628 20.5062 70.1442 -21.5001 -8.16233 25.7324 3.03256 
52.0255 100.61 12.4489 -2.13436 -1.23102 0.989504 0.41933 -2.26679 -0.0894932 0.828819 -0.531673 -0.216814 0.831687 1.1133 -0.230723 -1.59018 27.8726 1.28539 -4.84703 -7.38068 -0.136622 70.7294 -2.97083 -2.8718 102.722 18.5625 12.4915 -3.18055e-015 -6.36111e-015 -0 14.7195 0.120102 -0.405144 -1.00052e-005 -3.72445e-006 -3.02887 8.02893 -4.95146 0.697692 -61.6832 -3.96414 2.69839 -110.754 14.2796 -6.32073 -5.16881e-006 2.82335e-006 -3.33444e-006 -10.2562 1.72833 0.669626 -1.2342e-005 -1.77723e-006 3.00191 -8.02894 -4.95147 -0.697676 -179.175 0.732316 -1.55606 180 7.01563e-015 178.997 178.06 5.62834 179.739 -1.25957e-006 -6.71339e-007 0.0384567 -18.1335 67.346 19.0137 8.13373 25.2328 -3.49773 -175.739 0.61282 1.13973 4.54188e-006 -4.6773e-006 -1.09649 -2.67461 -9.74365 0.123881 2.966e-007 -4.00428e-006 -0.186748 20.5196 70.158 -21.5145 -8.16314 25.7442 3.03504 
52.0182 100.611 12.4413 -2.14446 -1.23585 0.938073 0.419925 -2.27075 -0.0921531 0.830997 -0.53961 -0.222166 0.833909 1.10536 -0.236112 -1.59689 27.9765 1.29924 -4.84498 -7.42385 -0.128286 70.7729 -2.9484 -2.86452 102.671 18.5558 12.4983 2.38542e-015 -6.36111e-015 -0 14.7307 0.120096 -0.402158 -1.00052e-005 -3.72445e-006 -3.02852 8.02893 -4.95146 0.697692 -61.7013 -3.95211 2.69279 -110.735 14.2637 -6.3191 -5.16881e-006 2.82335e-006 -3.33444e-006 -10.2696 1.70856 0.666632 -1.2342e-005 -1.77723e-006 3.00191 -8.02894 -4.95147 -0.697676 -179.164 0.734243 -1.55876 180 7.01563e-015 178.997 178.057 5.63559 179.739 -1.25957e-006 -6.71339e-007 0.0384567 -18.1314 67.3434 19.0114 8.13373 25.2328 -3.49773 -175.729 0.610955 1.13036 4.54188e-006 -4.6773e-006 -1.09648 -2.67775 -9.77229 0.123279 2.966e-007 -4.00428e-006 -0.186915 20.5339 70.1727 -21.5298 -8.16392 25.7554 3.03736 
52.0096 100.613 12.4516 -2.15497 -1.24102 0.886145 0.420639 -2.27453 -0.0947352 0.833361 -0.547196 -0.227375 0.836316 1.09778 -0.24136 -1.60211 28.078 1.31197 -4.84438 -7.46391 -0.1206 70.8146 -2.92841 -2.85825 102.622 18.5492 12.5031 7.95139e-016 6.36111e-015 3.18055e-015 14.7425 0.120089 -0.398922 -1.00052e-005 -3.72445e-006 -3.02816 8.02893 -4.95146 0.697692 -61.7176 -3.93952 2.68674 -110.719 14.2472 -6.3165 -5.16881e-006 2.82335e-006 -3.33444e-006 -10.283 1.69142 0.663932 -1.2342e-005 -1.77723e-006 3.00191 -8.02894 -4.95147 -0.697676 -179.154 0.735837 -1.56175 180 7.01563e-015 178.997 178.054 5.64287 179.74 -1.25957e-006 -6.71339e-007 0.0384567 -18.1293 67.3407 19.0091 8.13373 25.2328 -3.49773 -175.718 0.608966 1.12063 4.54188e-006 -4.6773e-006 -1.09647 -2.68083 -9.80205 0.122698 2.966e-007 -4.00428e-006 -0.187142 20.5494 70.1886 -21.5464 -8.16465 25.7659 3.03945 
